<?xml version="1.0" encoding="UTF-8" standalone="no"?>
<!-- Created with Inkscape (http://www.inkscape.org/) -->

<svg
   width="48"
   height="48"
   viewBox="0 0 48 48"
   version="1.1"
   id="svg1"
   inkscape:version="1.3.2 (091e20e, 2023-11-25, custom)"
   sodipodi:docname="person.svg"
   xmlns:inkscape="http://www.inkscape.org/namespaces/inkscape"
   xmlns:sodipodi="http://sodipodi.sourceforge.net/DTD/sodipodi-0.dtd"
   xmlns="http://www.w3.org/2000/svg"
   xmlns:svg="http://www.w3.org/2000/svg">
  <sodipodi:namedview
     id="namedview1"
     pagecolor="#ffffff"
     bordercolor="#000000"
     borderopacity="0.25"
     inkscape:showpageshadow="2"
     inkscape:pageopacity="0.0"
     inkscape:pagecheckerboard="0"
     inkscape:deskcolor="#d1d1d1"
     inkscape:document-units="px"
     inkscape:zoom="18.947917"
     inkscape:cx="25.015943"
     inkscape:cy="29.475536"
     inkscape:window-width="3840"
     inkscape:window-height="2054"
     inkscape:window-x="2869"
     inkscape:window-y="-11"
     inkscape:window-maximized="1"
     inkscape:current-layer="layer1" />
  <defs
     id="defs1" />
  <g
     inkscape:label="Layer 1"
     inkscape:groupmode="layer"
     id="layer1">
    <g
       id="g1"
       transform="matrix(0.45328602,0,0,0.45328602,2.1914738,2.7363488)">
      <circle
         cx="48"
         cy="11"
         r="8"
         id="circle1" />
      <path
         d="M 69.8,52.2 64.2,28.4 C 64,27.6 63.6,26.8 63,26.2 60.6,24.2 57.8,22.8 54.6,21.8 52.4,21.4 50.2,21 48,21 c -2.2,0 -4.4,0.4 -6.6,1 -3.2,0.8 -6,2.4 -8.4,4.4 -0.6,0.6 -1,1.4 -1.2,2.2 l -5.6,23.8 c 0,0.2 -0.2,0.6 -0.2,1 0,2.2 1.8,4 4,4 1.8,0 3.4,-1.4 3.8,-3 L 38,37 v 56 h 8 V 57 h 4 v 36 h 8 V 36.8 l 4.2,17.4 c 0.4,1.6 2,3 3.8,3 2.2,0 4,-1.8 4,-4 0,-0.4 -0.2,-0.8 -0.2,-1 z"
         id="path1" />
    </g>
  </g>
</svg>
