<?xml version="1.0" encoding="UTF-8" standalone="no"?>
<!-- Created with Inkscape (http://www.inkscape.org/) -->

<svg
   width="48"
   height="48"
   viewBox="0 0 48 48"
   version="1.1"
   id="svg1"
   xml:space="preserve"
   inkscape:version="1.3.2 (091e20e, 2023-11-25, custom)"
   sodipodi:docname="pig.svg"
   xmlns:inkscape="http://www.inkscape.org/namespaces/inkscape"
   xmlns:sodipodi="http://sodipodi.sourceforge.net/DTD/sodipodi-0.dtd"
   xmlns="http://www.w3.org/2000/svg"
   xmlns:svg="http://www.w3.org/2000/svg"><sodipodi:namedview
     id="namedview1"
     pagecolor="#ffffff"
     bordercolor="#000000"
     borderopacity="0.25"
     inkscape:showpageshadow="2"
     inkscape:pageopacity="0.0"
     inkscape:pagecheckerboard="0"
     inkscape:deskcolor="#d1d1d1"
     inkscape:document-units="px"
     showgrid="true"
     inkscape:zoom="22.627417"
     inkscape:cx="29.168155"
     inkscape:cy="30.250912"
     inkscape:window-width="3840"
     inkscape:window-height="2054"
     inkscape:window-x="2869"
     inkscape:window-y="-11"
     inkscape:window-maximized="1"
     inkscape:current-layer="layer1"><inkscape:grid
       id="grid3"
       units="px"
       originx="0"
       originy="0"
       spacingx="1"
       spacingy="1"
       empcolor="#0099e5"
       empopacity="0.30196078"
       color="#0099e5"
       opacity="0.14901961"
       empspacing="5"
       dotted="false"
       gridanglex="30"
       gridanglez="30"
       visible="true" /></sodipodi:namedview><defs
     id="defs1" /><g
     inkscape:label="Layer 1"
     inkscape:groupmode="layer"
     id="layer1"><path
       style="fill:#2b0000;fill-opacity:0;stroke:#000000;stroke-width:0.1"
       id="path5"
       sodipodi:type="arc"
       sodipodi:cx="-34.351627"
       sodipodi:cy="20.040005"
       sodipodi:rx="0.46648055"
       sodipodi:ry="1.0822349"
       sodipodi:start="1.1229971"
       sodipodi:end="1.1636689"
       sodipodi:open="true"
       sodipodi:arc-type="arc"
       d="m -34.149649,21.015534 a 0.46648055,1.0822349 0 0 1 -0.01727,0.01825" /><g
       id="g19"
       transform="translate(-1.6793786,-1.8561553)"><path
         style="fill:#ea659b;fill-opacity:1;stroke:#000000;stroke-width:0.003125"
         d="m 35.479093,20.444485 c -2.806218,-2.549193 -4.470359,-4.501693 -4.533129,-5.31862 -0.0142,-0.184762 -0.01151,-0.192549 0.140584,-0.407115 0.703755,-0.992834 1.950853,-1.940219 3.478377,-2.642423 1.681926,-0.773182 3.717455,-1.281725 5.16945,-1.2915 1.068072,-0.0072 1.186438,0.103516 1.182302,1.105798 -0.008,1.936626 -1.006657,4.806265 -2.313756,6.648512 -0.674632,0.950837 -1.493956,1.74986 -2.311328,2.254058 l -0.255282,0.157472 z"
         id="path17" /><path
         style="fill:#ea659b;fill-opacity:1;stroke:#000000;stroke-width:0.003125"
         d="M 14.928679,20.909644 C 13.984547,20.316901 13.171931,19.49501 12.453531,18.40625 11.473326,16.920715 10.740159,15.041052 10.417944,13.1875 c -0.0755,-0.434345 -0.08707,-0.584121 -0.0881,-1.140625 -10e-4,-0.568436 0.0058,-0.658232 0.06109,-0.796875 0.0519,-0.130222 0.08636,-0.168212 0.206897,-0.228062 0.529974,-0.263145 2.185327,-0.09987 3.907859,0.385453 1.698441,0.478535 3.250735,1.234464 4.384197,2.134996 0.512096,0.406859 1.268466,1.227311 1.382039,1.49913 0.153751,0.367979 -0.343677,1.221689 -1.441447,2.47388 -0.646043,0.73692 -2.133315,2.204929 -3.318778,3.275794 l -0.316422,0.285832 z"
         id="path18" /><path
         style="fill:#ff88b6;fill-opacity:1;stroke:#000000;stroke-width:0.003125"
         d="m 23.28125,39.231727 c -2.112291,-0.107052 -3.990335,-0.352717 -5.105605,-0.66786 -0.467911,-0.132217 -1.0371,-0.363738 -1.550645,-0.630732 -2.614798,-1.359443 -4.008824,-3.907425 -4.280454,-7.82376 -0.04057,-0.584998 -0.04053,-2.313111 7.3e-5,-2.796875 0.181726,-2.165224 0.846595,-4.305108 1.990443,-6.40625 1.366992,-2.511035 3.3497,-4.827948 5.352438,-6.254641 1.285471,-0.915734 3.281334,-1.637355 5.140625,-1.858639 0.557618,-0.06637 1.6604,-0.05052 2.198612,0.03159 1.345501,0.205275 2.442137,0.643815 4.123199,1.64885 0.662695,0.396197 1.011284,0.635564 1.48186,1.017556 0.445487,0.361626 1.474622,1.388221 1.904353,1.899656 2.204584,2.62373 3.703642,5.76608 4.21146,8.828125 0.317204,1.912681 0.219177,4.335563 -0.251246,6.209855 -0.634266,2.527093 -1.94991,4.354478 -3.824488,5.312088 -1.5997,0.81719 -4.147084,1.32771 -7.449894,1.493028 -0.723725,0.03623 -3.211449,0.03497 -3.940731,-0.002 z m 13.335952,-6.567665 c -0.0072,-0.02148 -0.03952,-0.0442 -0.07192,-0.05048 -0.05097,-0.0099 -0.05327,-0.0046 -0.01702,0.03906 0.04957,0.05973 0.107504,0.06716 0.08894,0.01142 z"
         id="path12" /><path
         style="fill:#ea659b;fill-opacity:1;stroke:#000000;stroke-width:0.003125"
         d="m 24.765625,36.153473 c -0.05156,-0.0071 -0.227344,-0.02777 -0.390625,-0.04605 -0.428905,-0.04801 -1.149378,-0.19687 -1.57023,-0.324436 -2.192169,-0.664477 -3.777363,-2.070787 -4.228959,-3.751737 -0.398095,-1.481806 0.153583,-3.02627 1.495896,-4.187869 1.110027,-0.960586 2.521309,-1.551458 4.303293,-1.801692 0.193912,-0.02723 0.605762,-0.04114 1.1875,-0.0401 0.747646,0.0013 0.958415,0.01221 1.312892,0.06774 1.010694,0.158324 1.817194,0.401505 2.608983,0.786676 1.59897,0.777831 2.663368,1.942363 3.022536,3.306883 0.08967,0.340674 0.09708,0.408286 0.09859,0.899609 0.0014,0.444992 -0.0094,0.575095 -0.06617,0.801282 -0.21634,0.861682 -0.584995,1.505528 -1.242461,2.169922 -1.044704,1.055712 -2.56725,1.770969 -4.359253,2.047875 -0.329133,0.05086 -0.604232,0.06735 -1.250122,0.07496 -0.455469,0.0054 -0.870313,0.004 -0.921875,-0.0031 z"
         id="path16" /><path
         style="fill:#2b0000;fill-opacity:1;stroke:#000000;stroke-width:0.003125"
         d="m 19.804202,23.421036 c -0.406431,-0.10236 -0.729082,-0.410532 -0.847553,-0.80952 -0.06569,-0.221237 -0.06367,-0.391431 0.0074,-0.619644 0.1148,-0.368851 0.3922,-0.647071 0.758984,-0.761227 0.238683,-0.07429 0.409087,-0.07429 0.64777,0 0.507317,0.157895 0.862516,0.683889 0.80366,1.190095 -0.02679,0.230447 -0.169339,0.527304 -0.33067,0.688635 -0.255036,0.255036 -0.71584,0.393187 -1.039548,0.311661 z"
         id="path13" /><path
         style="fill:#2b0000;fill-opacity:1;stroke:#000000;stroke-width:0.003125"
         d="m 30.725691,23.2684 c -0.301696,-0.112004 -0.50576,-0.294877 -0.666716,-0.597484 -0.06459,-0.121438 -0.07431,-0.18249 -0.07445,-0.467791 -1.35e-4,-0.285662 0.0098,-0.348345 0.07676,-0.484375 0.09936,-0.201829 0.350499,-0.451871 0.545079,-0.54269 0.568735,-0.265453 1.224285,-0.02841 1.505527,0.544392 0.08028,0.163506 0.09123,0.219542 0.09123,0.467048 0,0.24269 -0.0121,0.30743 -0.08825,0.4722 -0.18033,0.390198 -0.553956,0.639143 -0.98926,0.659137 -0.176963,0.0081 -0.275722,-0.0043 -0.399927,-0.05044 z"
         id="path14" /><path
         style="fill:#a0336f;fill-opacity:1;stroke:#000000;stroke-width:0.003125"
         d="m 22.594778,32.028098 c -0.331005,-0.08896 -0.597614,-0.315701 -0.747868,-0.636047 -0.06873,-0.146539 -0.08129,-0.216835 -0.08129,-0.455208 0,-0.254896 0.0097,-0.301674 0.10156,-0.488206 0.120686,-0.245147 0.317279,-0.437304 0.564842,-0.552096 0.146816,-0.06808 0.223077,-0.08239 0.442973,-0.08314 0.22831,-7.76e-4 0.293203,0.01183 0.461938,0.08975 0.254558,0.117551 0.506061,0.383244 0.600923,0.634828 0.238607,0.632812 -0.143708,1.341211 -0.808253,1.497627 -0.220328,0.05186 -0.319071,0.05047 -0.53483,-0.0075 z"
         id="path15" /><path
         style="fill:#a0336f;fill-opacity:1;stroke:#000000;stroke-width:0.003125"
         d="m 27.715904,32.145902 c -0.337118,-0.111793 -0.547504,-0.305838 -0.709258,-0.654169 -0.119557,-0.25746 -0.116753,-0.598869 0.0072,-0.873682 0.107843,-0.239142 0.350979,-0.478767 0.603283,-0.594569 0.255548,-0.117291 0.603776,-0.117391 0.859003,-2.46e-4 0.245245,0.112563 0.374044,0.216921 0.503741,0.40815 0.496147,0.731531 0.01797,1.706147 -0.862973,1.758906 -0.166026,0.0099 -0.272759,-0.0019 -0.400972,-0.04439 z"
         id="path19" /></g></g></svg>
