<?xml version="1.0" encoding="UTF-8" standalone="no"?>
<!-- Created with Inkscape (http://www.inkscape.org/) -->

<svg
   width="48"
   height="48"
   viewBox="0 0 48 48"
   version="1.1"
   id="svg1"
   inkscape:version="1.3.2 (091e20e, 2023-11-25, custom)"
   sodipodi:docname="pigCaptured.svg"
   xml:space="preserve"
   xmlns:inkscape="http://www.inkscape.org/namespaces/inkscape"
   xmlns:sodipodi="http://sodipodi.sourceforge.net/DTD/sodipodi-0.dtd"
   xmlns="http://www.w3.org/2000/svg"
   xmlns:svg="http://www.w3.org/2000/svg"><sodipodi:namedview
     id="namedview1"
     pagecolor="#ffffff"
     bordercolor="#000000"
     borderopacity="0.25"
     inkscape:showpageshadow="2"
     inkscape:pageopacity="0.0"
     inkscape:pagecheckerboard="0"
     inkscape:deskcolor="#d1d1d1"
     inkscape:document-units="px"
     inkscape:zoom="32"
     inkscape:cx="26.75"
     inkscape:cy="34.828125"
     inkscape:window-width="3840"
     inkscape:window-height="2054"
     inkscape:window-x="2869"
     inkscape:window-y="-11"
     inkscape:window-maximized="1"
     inkscape:current-layer="layer1" /><defs
     id="defs1" /><g
     inkscape:label="Layer 1"
     inkscape:groupmode="layer"
     id="layer1"><g
       id="g1"
       transform="matrix(0.45328602,0,0,0.45328602,-6.8332649,2.5252438)"><circle
         cx="48"
         cy="11"
         r="8"
         id="circle1" /><path
         d="M 69.8,52.2 64.2,28.4 C 64,27.6 63.6,26.8 63,26.2 60.6,24.2 57.8,22.8 54.6,21.8 52.4,21.4 50.2,21 48,21 c -2.2,0 -4.4,0.4 -6.6,1 -3.2,0.8 -6,2.4 -8.4,4.4 -0.6,0.6 -1,1.4 -1.2,2.2 l -5.6,23.8 c 0,0.2 -0.2,0.6 -0.2,1 0,2.2 1.8,4 4,4 1.8,0 3.4,-1.4 3.8,-3 L 38,37 v 56 h 8 V 57 h 4 v 36 h 8 V 36.8 l 4.2,17.4 c 0.4,1.6 2,3 3.8,3 2.2,0 4,-1.8 4,-4 0,-0.4 -0.2,-0.8 -0.2,-1 z"
         id="path1" /></g><path
       style="fill:#a0336f;stroke:#000000;stroke-width:0.1"
       d="m 28.229029,41.443086 c 0.237543,0.552428 0.861786,2.800806 1.121427,2.800806 0.25964,0 1.43631,0.15468 1.59099,-0.0055 0.15468,-0.160204 0.237544,-2.878146 0.04972,-2.88367 -0.187825,-0.0055 -2.762135,0.08839 -2.762135,0.08839 z"
       id="path3" /><path
       style="fill:#a0336f;stroke:#000000;stroke-width:0.119596"
       d="m 35.210133,40.570824 c -0.128314,0.770499 0.921906,3.744792 1.19966,3.744792 0.277753,0 1.53651,0.206813 1.70198,-0.0074 0.165471,-0.214199 0.254116,-3.848199 0.05318,-3.855584 -0.200929,-0.0074 -2.943778,0.05189 -2.943778,0.05189 z"
       id="path3-7"
       sodipodi:nodetypes="sssccs" /><path
       sodipodi:type="spiral"
       style="fill:#000000;fill-rule:evenodd;stroke:#000000;stroke-width:0.77182217;stroke-linecap:round;stroke-dasharray:none;fill-opacity:0"
       id="path5"
       sodipodi:cx="53.34375"
       sodipodi:cy="40.671875"
       sodipodi:expansion="1.16"
       sodipodi:revolution="2"
       sodipodi:radius="3.7155316"
       sodipodi:argument="-10.251819"
       sodipodi:t0="0.51460308"
       d="m 51.968415,41.703445 c -0.808405,-0.75276 -0.701229,-2.050273 0.0478,-2.801503 0.971524,-0.974382 2.583528,-0.825086 3.504678,0.136969 1.145196,1.19605 0.951783,3.133389 -0.230622,4.228149 -1.230393,1.139189 -3.149901,1.1403 -4.462143,0.13919"
       transform="matrix(-0.57914895,0,0,0.57914895,56.802779,8.9687932)" /><path
       style="fill:#ff78ae;stroke:#000000;stroke-width:0.1;fill-opacity:1"
       d="m 25.108301,44.371632 c -0.301487,-0.08039 -0.08695,-6.836109 -0.05278,-7.203958 0.303449,-3.266516 2.399945,-3.977018 4.261682,-4.010995 2.136966,-0.039 5.277624,-0.09236 8.496976,-0.09236 1.873836,-10e-7 2.068781,3.403138 2.058274,4.84222 -0.0132,1.807587 -2.254573,3.371933 -3.747114,3.562397 -0.286249,0.03653 -1.151679,0.07862 -1.256172,0.203167 -0.367378,0.437903 -0.669374,2.566732 -0.986819,2.580782 -0.393957,0.01744 -1.471083,0.184201 -1.702034,-0.05278 -0.195807,-0.200919 0.0048,-2.537822 -0.1565,-2.673783 -0.266583,-0.224722 -3.937355,-0.191916 -4.124487,0.04328 -0.214166,0.269177 -0.336931,2.78883 -0.957051,2.762442 -0.620121,-0.02639 -1.591753,0.104171 -1.668247,0.08377 z"
       id="path2"
       sodipodi:nodetypes="ssssssssssssss" /><g
       id="g19"
       transform="matrix(0.28503083,0,0,0.28311048,31.67276,27.031829)"><path
         style="fill:#ea659b;fill-opacity:1;stroke:#000000;stroke-width:0.003125"
         d="m 35.479093,20.444485 c -2.806218,-2.549193 -4.470359,-4.501693 -4.533129,-5.31862 -0.0142,-0.184762 -0.01151,-0.192549 0.140584,-0.407115 0.703755,-0.992834 1.950853,-1.940219 3.478377,-2.642423 1.681926,-0.773182 3.717455,-1.281725 5.16945,-1.2915 1.068072,-0.0072 1.186438,0.103516 1.182302,1.105798 -0.008,1.936626 -1.006657,4.806265 -2.313756,6.648512 -0.674632,0.950837 -1.493956,1.74986 -2.311328,2.254058 l -0.255282,0.157472 z"
         id="path17" /><path
         style="fill:#ea659b;fill-opacity:1;stroke:#000000;stroke-width:0.003125"
         d="M 14.928679,20.909644 C 13.984547,20.316901 13.171931,19.49501 12.453531,18.40625 11.473326,16.920715 10.740159,15.041052 10.417944,13.1875 c -0.0755,-0.434345 -0.08707,-0.584121 -0.0881,-1.140625 -10e-4,-0.568436 0.0058,-0.658232 0.06109,-0.796875 0.0519,-0.130222 0.08636,-0.168212 0.206897,-0.228062 0.529974,-0.263145 2.185327,-0.09987 3.907859,0.385453 1.698441,0.478535 3.250735,1.234464 4.384197,2.134996 0.512096,0.406859 1.268466,1.227311 1.382039,1.49913 0.153751,0.367979 -0.343677,1.221689 -1.441447,2.47388 -0.646043,0.73692 -2.133315,2.204929 -3.318778,3.275794 l -0.316422,0.285832 z"
         id="path18" /><path
         style="fill:#ff88b6;fill-opacity:1;stroke:#000000;stroke-width:0.003125"
         d="m 23.28125,39.231727 c -2.112291,-0.107052 -3.990335,-0.352717 -5.105605,-0.66786 -0.467911,-0.132217 -1.0371,-0.363738 -1.550645,-0.630732 -2.614798,-1.359443 -4.008824,-3.907425 -4.280454,-7.82376 -0.04057,-0.584998 -0.04053,-2.313111 7.3e-5,-2.796875 0.181726,-2.165224 0.846595,-4.305108 1.990443,-6.40625 1.366992,-2.511035 3.3497,-4.827948 5.352438,-6.254641 1.285471,-0.915734 3.281334,-1.637355 5.140625,-1.858639 0.557618,-0.06637 1.6604,-0.05052 2.198612,0.03159 1.345501,0.205275 2.442137,0.643815 4.123199,1.64885 0.662695,0.396197 1.011284,0.635564 1.48186,1.017556 0.445487,0.361626 1.474622,1.388221 1.904353,1.899656 2.204584,2.62373 3.703642,5.76608 4.21146,8.828125 0.317204,1.912681 0.219177,4.335563 -0.251246,6.209855 -0.634266,2.527093 -1.94991,4.354478 -3.824488,5.312088 -1.5997,0.81719 -4.147084,1.32771 -7.449894,1.493028 -0.723725,0.03623 -3.211449,0.03497 -3.940731,-0.002 z m 13.335952,-6.567665 c -0.0072,-0.02148 -0.03952,-0.0442 -0.07192,-0.05048 -0.05097,-0.0099 -0.05327,-0.0046 -0.01702,0.03906 0.04957,0.05973 0.107504,0.06716 0.08894,0.01142 z"
         id="path12" /><path
         style="fill:#ea659b;fill-opacity:1;stroke:#000000;stroke-width:0.003125"
         d="m 24.765625,36.153473 c -0.05156,-0.0071 -0.227344,-0.02777 -0.390625,-0.04605 -0.428905,-0.04801 -1.149378,-0.19687 -1.57023,-0.324436 -2.192169,-0.664477 -3.777363,-2.070787 -4.228959,-3.751737 -0.398095,-1.481806 0.153583,-3.02627 1.495896,-4.187869 1.110027,-0.960586 2.521309,-1.551458 4.303293,-1.801692 0.193912,-0.02723 0.605762,-0.04114 1.1875,-0.0401 0.747646,0.0013 0.958415,0.01221 1.312892,0.06774 1.010694,0.158324 1.817194,0.401505 2.608983,0.786676 1.59897,0.777831 2.663368,1.942363 3.022536,3.306883 0.08967,0.340674 0.09708,0.408286 0.09859,0.899609 0.0014,0.444992 -0.0094,0.575095 -0.06617,0.801282 -0.21634,0.861682 -0.584995,1.505528 -1.242461,2.169922 -1.044704,1.055712 -2.56725,1.770969 -4.359253,2.047875 -0.329133,0.05086 -0.604232,0.06735 -1.250122,0.07496 -0.455469,0.0054 -0.870313,0.004 -0.921875,-0.0031 z"
         id="path16" /><path
         style="fill:#2b0000;fill-opacity:1;stroke:#000000;stroke-width:0.003125"
         d="m 19.804202,23.421036 c -0.406431,-0.10236 -0.729082,-0.410532 -0.847553,-0.80952 -0.06569,-0.221237 -0.06367,-0.391431 0.0074,-0.619644 0.1148,-0.368851 0.3922,-0.647071 0.758984,-0.761227 0.238683,-0.07429 0.409087,-0.07429 0.64777,0 0.507317,0.157895 0.862516,0.683889 0.80366,1.190095 -0.02679,0.230447 -0.169339,0.527304 -0.33067,0.688635 -0.255036,0.255036 -0.71584,0.393187 -1.039548,0.311661 z"
         id="path13" /><path
         style="fill:#2b0000;fill-opacity:1;stroke:#000000;stroke-width:0.003125"
         d="m 30.725691,23.2684 c -0.301696,-0.112004 -0.50576,-0.294877 -0.666716,-0.597484 -0.06459,-0.121438 -0.07431,-0.18249 -0.07445,-0.467791 -1.35e-4,-0.285662 0.0098,-0.348345 0.07676,-0.484375 0.09936,-0.201829 0.350499,-0.451871 0.545079,-0.54269 0.568735,-0.265453 1.224285,-0.02841 1.505527,0.544392 0.08028,0.163506 0.09123,0.219542 0.09123,0.467048 0,0.24269 -0.0121,0.30743 -0.08825,0.4722 -0.18033,0.390198 -0.553956,0.639143 -0.98926,0.659137 -0.176963,0.0081 -0.275722,-0.0043 -0.399927,-0.05044 z"
         id="path14" /><path
         style="fill:#a0336f;fill-opacity:1;stroke:#000000;stroke-width:0.003125"
         d="m 22.594778,32.028098 c -0.331005,-0.08896 -0.597614,-0.315701 -0.747868,-0.636047 -0.06873,-0.146539 -0.08129,-0.216835 -0.08129,-0.455208 0,-0.254896 0.0097,-0.301674 0.10156,-0.488206 0.120686,-0.245147 0.317279,-0.437304 0.564842,-0.552096 0.146816,-0.06808 0.223077,-0.08239 0.442973,-0.08314 0.22831,-7.76e-4 0.293203,0.01183 0.461938,0.08975 0.254558,0.117551 0.506061,0.383244 0.600923,0.634828 0.238607,0.632812 -0.143708,1.341211 -0.808253,1.497627 -0.220328,0.05186 -0.319071,0.05047 -0.53483,-0.0075 z"
         id="path15" /><path
         style="fill:#a0336f;fill-opacity:1;stroke:#000000;stroke-width:0.003125"
         d="m 27.715904,32.145902 c -0.337118,-0.111793 -0.547504,-0.305838 -0.709258,-0.654169 -0.119557,-0.25746 -0.116753,-0.598869 0.0072,-0.873682 0.107843,-0.239142 0.350979,-0.478767 0.603283,-0.594569 0.255548,-0.117291 0.603776,-0.117391 0.859003,-2.46e-4 0.245245,0.112563 0.374044,0.216921 0.503741,0.40815 0.496147,0.731531 0.01797,1.706147 -0.862973,1.758906 -0.166026,0.0099 -0.272759,-0.0019 -0.400972,-0.04439 z"
         id="path19" /></g><path
       style="fill:#ff78ae;fill-opacity:1;stroke:#000000;stroke-width:0.00698437;stroke-linecap:round;stroke-dasharray:none"
       d="m 30.273437,44.248851 c -0.03438,-0.0033 -0.238281,-0.01707 -0.453125,-0.03065 -0.516717,-0.03265 -0.480199,-0.02491 -0.537311,-0.113909 -0.06961,-0.108483 -0.188919,-0.369435 -0.283423,-0.619917 -0.136644,-0.362173 -0.670072,-1.95235 -0.658645,-1.963454 0.03662,-0.03558 1.87254,-0.1011 2.340885,-0.08354 0.292733,0.01098 0.300214,0.01209 0.30873,0.04603 0.06558,0.261293 0.06124,1.530005 -0.0076,2.22753 -0.02014,0.203991 -0.05819,0.434195 -0.07784,0.470916 -0.0082,0.01524 -0.04112,0.03516 -0.07324,0.04426 -0.06092,0.01726 -0.449927,0.03309 -0.55841,0.02273 z"
       id="path6" /><path
       style="fill:#ff78b7;fill-opacity:1;stroke:#000000;stroke-width:0.00698437;stroke-linecap:round;stroke-dasharray:none"
       d="m 37.304687,44.326155 c -0.09281,-0.0094 -0.571897,-0.05293 -0.741687,-0.06734 -0.146214,-0.01241 -0.148541,-0.01326 -0.199792,-0.07254 -0.151527,-0.175291 -0.478665,-0.959422 -0.723064,-1.733142 -0.102198,-0.32354 -0.239555,-0.835484 -0.227421,-0.847619 0.0052,-0.0052 0.172853,-0.02552 0.372578,-0.04518 0.199725,-0.01965 0.429933,-0.04738 0.511574,-0.06161 0.519685,-0.09058 1.192369,-0.378265 1.736244,-0.742525 l 0.134681,-0.0902 0.01026,0.08734 c 0.02259,0.192178 0.04148,0.989719 0.03287,1.387292 -0.02296,1.059344 -0.0697,1.775763 -0.134241,2.057407 -0.0255,0.111269 -0.07441,0.12621 -0.428251,0.130815 -0.154687,0.002 -0.309375,8.01e-4 -0.34375,-0.0027 z"
       id="path7" /><path
       style="fill:#ff74b5;fill-opacity:1;stroke:#000000;stroke-width:0.00698437;stroke-linecap:round;stroke-dasharray:none"
       d="m 29.817638,44.208814 c -0.224909,-0.01593 -0.427116,-0.03588 -0.449349,-0.04433 -0.02223,-0.0085 -0.06068,-0.04731 -0.08544,-0.08635 -0.06261,-0.09873 -0.191989,-0.389061 -0.290931,-0.652872 -0.123574,-0.329489 -0.640968,-1.882977 -0.630588,-1.893357 0.04127,-0.04127 2.188963,-0.10676 2.489622,-0.07591 l 0.124389,0.01276 0.01198,0.05469 c 0.03185,0.145427 0.04643,0.812363 0.02929,1.340265 -0.02522,0.776778 -0.07653,1.257169 -0.14124,1.322349 -0.0601,0.06054 -0.416175,0.0682 -1.057727,0.02276 z"
       id="path8" /><path
       style="fill:#ff74b5;fill-opacity:1;stroke:#000000;stroke-width:0.00698437;stroke-linecap:round;stroke-dasharray:none"
       d="m 36.890625,44.280248 c -0.219141,-0.02098 -0.414931,-0.04194 -0.435089,-0.04659 -0.06524,-0.01503 -0.127748,-0.103726 -0.252761,-0.358659 -0.252754,-0.515428 -0.540359,-1.32413 -0.726887,-2.043898 -0.03262,-0.125885 -0.04716,-0.208494 -0.03771,-0.214333 0.0085,-0.0052 0.192717,-0.02886 0.409474,-0.05253 0.216757,-0.02367 0.457482,-0.05619 0.534945,-0.07227 0.538147,-0.111725 1.136553,-0.378453 1.728798,-0.77058 0.03605,-0.02387 0.0422,-0.02428 0.05021,-0.0034 0.005,0.01308 0.01731,0.226028 0.02731,0.473217 0.03924,0.969581 -0.03216,2.647747 -0.128028,3.009211 -0.02569,0.09685 -0.07258,0.108666 -0.451512,0.11372 -0.246693,0.0033 -0.411889,-0.0045 -0.71875,-0.03387 z"
       id="path9" /><path
       style="fill:#6c5353;fill-opacity:1;stroke:#000000;stroke-width:0.047;stroke-linecap:round;stroke-dasharray:none"
       d="m 24.96875,43.671875 2.5,-0.07813"
       id="path10" /><path
       style="fill:#6c5353;fill-opacity:1;stroke:#000000;stroke-width:0.047;stroke-linecap:round;stroke-dasharray:none"
       d="m 29.0235,43.621161 1.996094,-0.0039"
       id="path10-5"
       sodipodi:nodetypes="cc" /><path
       style="fill:#6c5353;fill-opacity:1;stroke:#000000;stroke-width:0.047;stroke-linecap:round;stroke-dasharray:none"
       d="M 32.156312,43.5899 34.152406,43.586"
       id="path10-5-5"
       sodipodi:nodetypes="cc" /><path
       style="fill:#6c5353;fill-opacity:1;stroke:#000000;stroke-width:0.047;stroke-linecap:round;stroke-dasharray:none"
       d="m 36.105531,43.824275 2.070312,0.01954"
       id="path10-5-5-9"
       sodipodi:nodetypes="cc" /><path
       style="fill:#917c6f;fill-opacity:1;stroke:#000000;stroke-width:0.000183594;stroke-linecap:round;stroke-dasharray:none"
       d="m 25.205712,44.344541 c -0.05261,-0.01458 -0.07519,-0.02259 -0.07922,-0.0281 -0.02107,-0.02882 -0.04857,-0.176358 -0.06589,-0.353549 -0.0067,-0.06856 -0.02188,-0.266752 -0.02049,-0.267667 0.0025,-0.0016 2.339373,-0.0729 2.340885,-0.07139 0.0024,0.0024 -0.03248,0.112563 -0.05707,0.180329 -0.09289,0.255964 -0.188689,0.403663 -0.296302,0.456839 l -0.03307,0.01634 -0.121296,-0.001 c -0.323663,-0.0028 -0.608653,0.01257 -1.256063,0.06755 -0.114941,0.0098 -0.237988,0.0185 -0.273437,0.01941 l -0.06445,0.0017 z"
       id="path11" /><path
       style="fill:#999999;fill-opacity:1;stroke:#000000;stroke-width:0.000183594;stroke-linecap:round;stroke-dasharray:none"
       d="m 25.214844,44.345439 c -0.08104,-0.02323 -0.08546,-0.02531 -0.09352,-0.04413 -0.01722,-0.04023 -0.04015,-0.167024 -0.0549,-0.303613 -0.0079,-0.07287 -0.02346,-0.263512 -0.02346,-0.286894 v -0.01275 l 0.04785,-0.0025 c 0.04739,-0.0025 0.573235,-0.01885 1.573242,-0.04892 0.755383,-0.02271 0.716515,-0.02188 0.714129,-0.01541 -0.0011,0.003 -0.0078,0.02485 -0.01492,0.04848 -0.04838,0.16135 -0.124815,0.337711 -0.187925,0.433594 -0.03743,0.05686 -0.09824,0.117882 -0.142095,0.142584 l -0.0312,0.01757 -0.242238,0.0025 c -0.133231,0.0014 -0.278273,0.0045 -0.322316,0.0069 -0.256632,0.01437 -0.388451,0.02367 -0.697266,0.04922 -0.277242,0.02294 -0.369056,0.02922 -0.421875,0.02885 -0.04669,-3.29e-4 -0.05503,-0.0016 -0.103515,-0.01547 z"
       id="path20" /><path
       style="fill:#999999;fill-opacity:1;stroke:#000000;stroke-width:0.000183594;stroke-linecap:round;stroke-dasharray:none"
       d="m 30.310547,44.229834 c -0.422221,-0.01633 -0.9036,-0.05405 -0.945912,-0.07413 -0.0188,-0.0089 -0.05992,-0.05431 -0.0832,-0.09183 -0.03379,-0.05447 -0.09209,-0.176011 -0.160866,-0.335362 l -0.03456,-0.08008 0.528284,-0.0024 c 1.003586,-0.0045 1.354457,-0.0041 1.354457,0.0016 0,0.01207 -0.01269,0.13874 -0.01984,0.197997 -0.02063,0.171073 -0.04375,0.280197 -0.06841,0.322958 -0.0198,0.03433 -0.08449,0.05073 -0.235977,0.05982 -0.05699,0.0034 -0.25929,0.0042 -0.333984,0.0014 z"
       id="path21" /><path
       style="fill:#999999;fill-opacity:1;stroke:#000000;stroke-width:0.000183594;stroke-linecap:round;stroke-dasharray:none"
       d="m 32.646484,44.271239 c -0.247362,-0.01096 -0.409953,-0.05896 -0.441416,-0.130324 -0.02874,-0.06517 -0.04858,-0.220998 -0.05881,-0.461715 l -0.0027,-0.06299 1.006504,-0.0029 c 0.553577,-0.0016 1.00761,-0.0018 1.008962,-4.67e-4 0.0053,0.0053 -0.06993,0.228214 -0.112215,0.332493 -0.02501,0.06169 -0.06513,0.142897 -0.08842,0.178981 -0.01977,0.03063 -0.04936,0.06354 -0.06375,0.0709 -0.0056,0.0029 -0.03884,0.007 -0.0763,0.0096 -0.03652,0.0025 -0.144629,0.01146 -0.240234,0.01991 -0.521464,0.04611 -0.718792,0.05597 -0.931641,0.04654 z"
       id="path22" /><path
       style="fill:#999999;fill-opacity:1;stroke:#000000;stroke-width:0.000183594;stroke-linecap:round;stroke-dasharray:none"
       d="m 37.335937,44.306411 c -0.148124,-0.0051 -0.310336,-0.01781 -0.597656,-0.04682 -0.250466,-0.02528 -0.279189,-0.02915 -0.303078,-0.04084 -0.03682,-0.01801 -0.08,-0.07222 -0.135349,-0.169925 -0.02753,-0.0486 -0.10186,-0.19542 -0.09989,-0.197314 0.0022,-0.0021 1.902295,0.01702 1.904455,0.01918 0.0029,0.0029 -0.01666,0.159048 -0.02865,0.228913 -0.01806,0.105216 -0.029,0.137435 -0.0542,0.159558 -0.0369,0.0324 -0.09707,0.04148 -0.314538,0.04747 -0.150041,0.0041 -0.246245,0.0041 -0.371094,-2.29e-4 z"
       id="path23" /><path
       style="fill:#999999;fill-opacity:1;stroke:#000000;stroke-width:0.000183594;stroke-linecap:round;stroke-dasharray:none"
       d=""
       id="path24" /><path
       style="fill:#999999;fill-opacity:1;stroke:#000000;stroke-width:0.000183594;stroke-linecap:round;stroke-dasharray:none"
       d=""
       id="path25" /></g></svg>
